<?xml version="1.0" encoding="UTF-8" standalone="no"?>
<!DOCTYPE svg PUBLIC "-//W3C//DTD SVG 1.1//EN" "http://www.w3.org/Graphics/SVG/1.1/DTD/svg11.dtd">
<svg xmlns="http://www.w3.org/2000/svg">
<metadata>Generated by Fontastic.me</metadata>
<defs>
<font id="ultimate-social" horiz-adv-x="512">
<font-face font-family="ultimate-social" units-per-em="512" ascent="480" descent="-32"/>
<missing-glyph horiz-adv-x="512"/>

<glyph glyph-name="managewp" unicode="" d="M238 490c-73-4-138-42-180-104-38-56-49-134-28-199 26-82 93-142 178-160 23-5 67-5 91 0 46 9 89 32 122 66 44 45 66 101 66 163 0 28-1 36-6 58-24 95-106 166-203 175-9 1-27 1-40 1z m68-27c40-10 70-28 100-58 28-30 45-59 55-100 4-14 5-22 5-49-1-28-1-35-6-52-18-70-73-128-140-150-32-10-72-13-104-7-81 15-147 75-169 157-5 20-7 62-4 85 13 89 83 160 175 178 23 4 64 2 88-4z m92-85c-11-63-35-95-74-95-24 0-45 13-56 35-6 13-11 36-9 45 2 6-1 6-19-7-24-16-43-39-50-62-3-10-6-13-6-5 0 2-3 10-7 18-6 10-11 18-23 29-9 8-19 16-24 19l-8 5 4-9c10-17 15-46 12-66-5-29-31-64-57-77l-12-5 4-8c24-59 72-102 132-118 20-5 78-5 98 0 19 5 52 21 67 33 31 26 55 67 64 113 4 22 4 65 0 85-6 25-19 58-31 73l-4 5z"/>
<glyph glyph-name="reddit" unicode="" d="M0 257c0 18 7 33 21 45 14 13 30 19 48 19 17 0 32-5 44-15l3 0c38 23 85 35 142 35l2 1 30 114 103-16c0 0 0 0 0 0 1 0 1 0 0 0 1 1 3 3 6 7 2 4 4 7 6 8 9 9 21 13 34 13 14 0 26-4 36-13 9-9 14-21 14-35-1-14-5-26-14-36-9-9-21-14-36-15-16 0-28 6-37 17-8 11-12 25-12 41-1 0-15 1-42 5-26 4-42 7-46 8l-2 0c0-1-2-9-6-23-4-14-9-30-13-46-5-17-7-26-8-27l0-2 2-1c21 0 42-3 63-9 22-6 40-14 55-25l2 0c0 0 0 0 1 0 0 0 0 0 0 0 8 6 13 9 16 11 3 2 7 4 12 6 5 1 11 2 18 2 20 0 36-7 50-20 13-14 20-30 20-50 0-13-4-25-11-37-7-11-17-19-30-25 0-55-37-98-110-129-12-5-20-8-24-10-9-2-22-5-39-8-16-2-30-3-39-3-34 0-67 5-98 14-1 1-11 6-31 17-27 14-48 30-65 49-16 18-24 40-24 66l-2 0c-10 5-18 12-25 21l-4 5c-4 8-7 15-8 20-1 5-2 12-2 21z m14-5c0-19 9-34 25-47 1 16 8 33 20 49 12 16 27 30 43 43-11 7-22 11-35 11-14 0-26-6-36-17-11-11-16-24-17-39z m44-62c0-15 4-30 13-44 9-14 20-26 34-36 14-10 28-19 43-26 15-7 30-12 45-14 21-4 42-6 62-6 35 0 68 5 99 17 31 11 57 28 79 52l-2 0c9 11 15 20 19 29 3 9 5 19 5 31 0 15-4 30-11 43-7 14-17 26-30 36-12 10-25 19-39 26-13 7-28 13-42 16-24 7-50 10-77 10-21 0-43-3-64-8-22-5-43-12-64-23-21-10-38-24-51-42-13-18-19-38-19-61z m79 31c0 11 3 19 10 26 6 6 14 9 25 9 10 0 19-3 26-9 7-6 11-15 11-26 0-10-4-19-11-25-7-7-16-11-26-11-11 0-19 4-25 11-7 6-10 15-10 25z m15-70l19 0c7-12 18-22 34-28 15-7 31-10 47-11 16 0 32 4 47 11 14 6 26 16 35 28l18 0c-7-17-20-31-40-40-19-10-39-15-60-15-20 0-40 5-60 15-19 10-33 23-40 40z m143 70c0 11 3 19 10 26 6 6 15 9 26 9 9 0 17-3 24-10 7-7 10-15 10-25 0-9-3-18-10-25-7-7-15-11-24-11-11 0-19 4-26 11-6 6-10 15-10 25z m108 199c0-10 4-18 11-25 7-8 15-11 25-11 11 0 19 3 25 11 7 7 10 15 10 25 0 10-3 18-10 25-7 6-15 10-25 10-9 0-18-4-25-10-7-7-10-15-11-25z m6-119c16-11 29-24 41-39 11-16 19-33 23-51 17 12 25 25 25 40 0 17-5 31-14 43-10 12-24 18-40 18-13 0-24-4-35-11z"/>
<glyph glyph-name="github" unicode="" d="M475 256c0-48-14-91-42-129-28-38-64-65-108-79-5-1-9-1-11 2-2 2-4 5-4 8l0 61c0 18-4 32-14 40 11 1 20 3 29 5 8 3 17 7 27 12 10 5 17 11 23 19 6 7 11 17 15 29 5 13 7 27 6 43 0 23-8 43-23 59 8 18 7 37-2 58-5 2-13 1-23-3-10-3-19-8-26-12l-11-7c-18 5-36 8-55 8-19 0-37-3-55-8-3 2-7 5-12 8-5 3-13 6-24 11-11 4-19 6-24 3-9-21-9-40-3-58-15-16-22-36-22-59 0-16 2-30 6-42 4-13 9-23 15-30 6-8 13-15 23-19 10-5 18-9 27-12 8-2 18-4 29-5-8-7-12-16-14-29-4-2-8-4-13-5-4-1-10-1-16-1-7 0-13 2-19 6-5 4-11 10-16 18-3 6-8 11-13 15-6 4-11 6-15 7l-5 1c-4 0-7-1-8-2-2 0-2-1-2-3 0-2 1-3 3-4 1-1 2-2 3-3l2-2c4-2 8-5 12-11 5-5 8-10 10-14l2-7c3-7 7-13 13-17 6-5 12-8 19-9 7-2 13-2 20-2 6 0 12 0 16 1l6 1c0-7 0-16 0-25 0-10 1-15 1-16 0-3-1-6-4-8-3-3-7-3-11-2-44 14-80 41-108 79-28 38-42 81-42 129 0 40 10 77 29 110 20 34 47 60 80 80 33 20 70 30 110 30 41 0 78-10 110-30 33-20 60-46 80-80 21-33 30-70 29-110z"/>
<glyph glyph-name="envato" unicode="" d="M102 370c-16-11-59-61-63-134-6-102 84-210 211-212 214 9 216 199 217 223 4 67-20 221-66 245-12 8-73-4-101-14-121-75-164-186-165-275-16-4-36 49-34 85 0 27 1 45 12 73-10 14-4 5-11 9z"/>
<glyph glyph-name="pocket" unicode="" d="M1 333c-2 64 0 105 5 121 2 3 3 5 4 8 2 2 4 3 7 5 2 1 4 3 6 4 1 2 4 3 8 5 3 1 6 3 7 4 41 0 99 0 174 0 75 1 125 1 149 1l42 0c0 0 8 0 25 0 16 0 25 0 25-1 0-1 7-2 20-3 13-1 18-2 15-4 5-3 9-7 12-11 4-5 6-9 7-13 2-4 3-10 4-18 1-8 1-14 1-19 0-5 0-12 0-23 0-10 0-17 0-22 0-62-4-111-11-148-7-36-21-68-43-96-21-26-46-47-74-63-29-15-58-25-87-28-30-3-60-1-91 5-30 7-58 18-83 33-26 16-48 36-68 61-21 24-35 52-44 81-4 16-8 56-10 121z m104 1c-7-9-5-22 7-41 13-18 28-37 47-55 1-1 7-7 18-19 11-11 19-19 24-23 5-4 12-9 21-16 9-6 18-10 26-13 3-1 6-1 10-1 3 0 6 0 9 0 3 1 5 2 8 3 3 2 6 3 8 4 1 0 4 2 7 5 3 3 5 5 5 5 1-1 3 1 6 4l1 2c3 3 12 11 27 25 15 14 28 26 39 37 10 10 21 22 30 35 10 14 16 25 16 34-4 12-10 20-17 25-7 5-15 6-23 4-8-2-17-6-25-11-9-6-17-13-27-22-9-9-17-17-25-25-7-8-15-16-22-23-7-7-13-12-17-15-8 5-19 14-33 27-13 13-26 25-37 37-10 11-21 21-33 29-11 8-19 10-24 6-8-5-16-11-26-18z"/>
<glyph glyph-name="meneame" unicode="" d="M260 270c-11-6-21-10-32-12-17-4-33-4-49 0-14 2-26 10-35 20-19 21-32 45-36 73-6 39 8 70 38 95 21 18 46 26 73 31 42 7 82-1 120-18 20-8 39-18 60-25 4-2 9-3 13-4 9-1 16 2 22 8 7 8 10 18 10 29 2 0 2-1 3-2 6-12 4-31-4-40-9-11-21-13-34-11-14 2-28 6-41 12-24 12-49 22-76 29-33 7-66 6-99-5-47-16-72-63-59-111 8-27 23-49 48-65 10-6 22-9 34-8 12 0 24 2 37 4 2 1 4 1 7 0z m50-236c-3 1-7-2-8 1 0 3 4 4 7 5 15 7 31 13 47 20 10 4 19 8 28 14 3 2 6 5 8 7 4 5 5 9 3 15-12 30-26 59-36 89-8 25-15 50-17 76-2 30 9 54 35 71 13 8 26 13 40 19 16 7 33 15 47 26 22 17 29 39 27 65 0 12-2 24-5 35 0 2-2 4 0 5 2 0 3-1 4-3 7-13 13-26 15-41 3-29-9-50-29-69-13-12-28-20-43-27-14-7-28-14-41-22-15-9-26-21-30-38-3-14-1-28 2-42 6-30 18-58 30-86 7-15 13-29 18-44 8-24 2-43-20-56-15-10-33-15-51-17-10-2-21-3-31-3z m-209 290c0-2-2-4-3-6-23-33-43-68-58-105-10-26-13-53-6-80 9-34 31-54 63-67 23-9 47-13 71-16 33-4 67-6 101-10 3 0 6-1 10-2 1 0 3-1 3-3 0-2-3-1-4-1-22-2-44-3-66-4-31 0-62 0-92 5-49 8-88 33-106 81-10 26-9 53-1 80 12 40 30 76 60 106 8 8 16 14 25 21 1 1 1 2 3 1z m84-180c35 5 70 8 105 4 17-2 20-5 21-22 0-27-3-53-11-79-1-4-3-8-6-12-1-1-2-3-4-2-2 0-2 2-2 4 0 11 2 23 3 34 1 16 4 32 3 49-1 5-3 8-8 10-14 7-28 9-43 10-18 2-36 2-54 3-1 0-2 0-4 1z"/>
<glyph glyph-name="spin" unicode="" d="M237 512c-4 0-6-3-6-6l0-93c0-3 2-6 6-6l35 0c0 0 0 0 0 0 4 0 7 3 7 6l0 93c0 3-3 6-7 6l-35 0c0 0 0 0 0 0z m128-24c-3 0-5-1-6-3l-46-81c-2-3-1-6 2-8l31-18c3-1 6 0 8 2l46 81c2 3 1 7-2 9l-31 17c0 1-1 1-2 1z m-220-1c-1 0-2-1-3-1l-31-18c-2-2-3-5-2-8l47-81c1-3 5-4 8-2l31 18c3 2 4 5 2 8l-46 80c0 1 0 1 0 1-1 2-4 3-6 3z m318-84c-1 0-2 0-3 0l-81-47c-3-1-4-5-2-8l18-31c2-3 5-4 8-2l80 46c1 0 1 0 1 0 3 2 3 6 2 9l-18 31c-1 1-3 2-5 2z m-415-2c-2 0-4-1-6-3l-17-31c-2-2-1-6 2-8l81-47c3-1 6 0 8 3l18 31c1 3 0 6-2 8l-81 46c-1 1-2 1-3 1z m365-120c-3 0-6-2-6-6l0-35c0 0 0 0 0 0 0-4 3-7 6-7l93 0c3 0 6 3 6 7l0 35c0 0 0 0 0 0 0 4-3 6-6 6z m-407-2c-3 0-6-3-6-7l0-35c0 0 0 0 0 0 0-4 3-6 6-6l93 0c3 0 6 2 6 6l0 35c0 0 0 0 0 0 0 4-3 7-6 7z m395-79c-2 0-4-1-5-3l-17-31c-1 0-1 0-1 0-1-3 0-6 2-8l81-46c3-2 7-1 9 2l17 31c2 2 1 6-2 8l-81 46c-1 1-2 1-3 1z m-289-2c-1 0-2 0-3-1l-80-46c0 0-1 0-1 0-2-2-3-6-2-9l18-31c2-2 5-3 8-2l81 47c3 1 4 5 2 8l-18 31c-1 2-3 3-5 3z m239-62c-1 0-2 0-3-1l-31-18c-3-2-4-5-2-8l46-80c0-1 0-1 0-1 2-3 6-3 9-2l31 18c2 2 3 5 2 8l-47 81c-1 2-3 3-5 3z m-188-2c-2 1-4-1-5-2l-46-81c-2-3-1-7 2-9l31-17c2-2 6-1 8 2l47 81c1 3 0 6-3 8l-31 17c0 1 0 1 0 1-1 0-2 0-3 0z m77-29c-4 0-7-3-7-6l0-93c0-3 3-6 7-6l35 0c0 0 0 0 0 0 4 0 6 3 6 6l0 93c0 3-2 6-6 6l-35 0c0 0 0 0 0 0z"/>
<glyph glyph-name="flipboard" unicode="" d="M312 414l-106 0 0-106 213 0 0 106z m-106-106l106 0 0-107-106 0z m-107 106l0-320 107 0 0 320z"/>
<glyph glyph-name="buffer" unicode="" d="M5 122c4 5 10 9 17 13 7 4 15 7 25 10 9 3 16 6 20 8 7 0 13-1 18-2 5-1 10-4 17-8 6-3 10-6 12-6 16-7 61-28 134-61 6-2 12-2 18 0 6 1 12 4 20 9 7 5 12 7 12 7 7 3 20 9 40 18 19 9 34 16 44 20 2 1 9 4 22 11 13 6 23 10 30 12 5 1 10 1 15 0 5-1 9-3 12-4 2-1 6-4 11-7 5-3 9-5 10-5 1-1 3-2 8-3 4-2 7-3 9-4 2-2 4-4 6-6 1-1 1-4 2-7-4-5-9-9-16-13-7-3-16-7-26-11-11-4-17-6-21-8-15-7-36-17-65-32-29-14-51-25-66-31-3-1-6-3-11-6-5-3-9-5-12-7-3-1-7-3-13-5-6-3-11-4-14-4-3 0-9 0-15 1l-136 63c-2 1-7 3-16 7-9 4-18 8-26 11-9 4-18 8-28 13-10 4-18 8-23 12-6 4-10 6-12 8-1 2-2 4-2 7z m0 137c4 5 10 9 17 13 7 3 15 7 25 10 10 4 17 6 21 8 7 0 13-1 18-2 5-2 11-4 18-8 7-4 11-6 12-7 15-7 36-16 66-30 29-13 50-23 65-30 6-2 12-2 18 0 7 2 13 5 20 9 8 4 12 6 13 7 23 11 51 23 82 37 4 1 9 4 17 8 7 5 13 8 19 10 6 3 12 4 18 6 6 1 11 1 17-1 5-1 12-4 19-8 7-5 11-7 12-7 1-1 4-2 8-3 3-1 7-3 9-4 2-2 4-4 6-6 1-2 1-4 2-7-4-5-9-9-16-13-7-4-16-8-27-12-11-4-18-6-21-8-17-8-40-19-69-33-30-14-51-25-63-30-3-1-7-4-14-7-6-4-11-7-15-8-3-2-9-3-16-5-8-2-14-2-18 0-73 34-118 55-134 62-2 1-9 4-22 10-13 5-25 10-35 15-11 5-22 10-32 16-11 5-17 9-18 11-1 1-2 4-2 7z m0 137c4 5 9 10 17 14 7 4 16 7 26 11 11 3 18 6 21 8l179 83c10 0 19-1 27-4 8-2 18-6 29-13 11-6 18-10 20-11 14-6 34-16 60-28 27-12 47-21 60-28 2-1 8-3 19-8 11-4 21-8 28-12 7-4 12-7 14-10 1-2 1-4 2-7-3-4-8-8-14-11-5-3-13-6-22-10-9-3-15-6-18-7-16-8-40-19-71-34-32-15-56-26-71-34-3-1-6-3-11-6-4-2-8-5-11-6-4-1-8-3-13-5-6-3-10-4-14-4-4 1-9 1-14 1-84 39-128 59-132 61-1 1-12 5-32 14-20 9-37 17-52 24-15 7-23 12-25 15-1 1-2 4-2 7z"/>
<glyph glyph-name="instagram" unicode="" d="M426 104l0 186-39 0c4-12 6-25 6-38 0-24-6-46-19-66-12-20-28-36-49-48-21-12-44-18-69-18-37 0-69 13-96 39-27 26-40 57-40 93 0 13 2 26 6 38l-41 0 0-186c0-4 2-8 5-12 4-3 8-5 13-5l305 0c5 0 9 2 13 5 3 4 5 8 5 12z m-81 153c0 24-9 44-26 60-18 17-39 26-63 26-24 0-45-9-62-26-17-16-25-36-26-60 0-24 9-44 26-60 18-17 39-25 62-25 25 0 46 8 63 25 17 16 25 36 26 60z m81 103l0 47c0 5-2 10-6 14-4 4-8 6-14 5l-50 0c-5 0-10-1-14-5-4-4-5-9-5-14l0-47c0-6 1-11 5-14 4-4 9-6 14-6l50 0c6 0 10 2 14 6 4 3 6 8 6 14z m49 59l0-326c0-16-5-29-16-40-11-11-24-16-40-17l-326 0c-15 0-29 6-40 17-11 12-17 25-16 40l0 326c0 16 5 29 16 40 11 11 24 16 40 17l326 0c15 0 29-6 40-17 11-12 17-25 16-40z"/>
<glyph glyph-name="linkedin" unicode="" d="M136 333l0-283-94 0 0 283z m7 88c0-14-5-26-15-35-10-9-23-14-39-14l0 0c-16 0-28 5-38 14-10 9-14 21-14 35 0 14 5 25 14 35 10 9 23 13 39 13 16 0 28-4 38-13 9-10 14-21 15-35z m332-209l0-162-93 0 0 152c0 20-4 36-12 47-8 11-20 17-36 17-12 0-22-4-30-10-8-6-14-15-19-25-2-5-3-13-3-23l0-158-94 0c0 76 1 138 1 185 0 47 0 75 0 84l-1 14 94 0 0-41 0 0c4 6 8 12 12 16 4 5 9 10 15 15 7 6 15 10 26 12 10 3 21 5 32 5 33 0 59-11 79-32 19-22 29-54 29-96z"/>
<glyph glyph-name="mail" unicode="" d="M476 82l0 220c-6-7-13-14-20-19-51-39-92-71-122-97-10-8-18-14-24-19-6-5-14-9-24-14-11-4-20-7-29-7l-2 0c-8 0-18 3-29 7-10 5-18 9-24 14-6 5-14 11-24 19-30 26-70 58-122 97-7 5-14 12-20 19l0-220c0-2 1-5 3-6 2-2 5-3 7-3l420 0c3 0 5 1 7 3 1 1 2 4 3 6z m0 300l0 8c0 0-1 1-1 3 0 3 0 4 0 4 0 0-1 1-2 2-1 2-2 3-2 2-1 0-3 0-5 1l-420 0c-3 0-5-1-7-3-1-2-2-4-3-6 0-32 14-59 42-81 37-29 75-59 115-91 1-1 5-3 10-8 6-5 10-8 13-11 3-2 7-5 13-9 5-4 10-6 14-8 4-1 8-2 12-2l2 0c3 0 7 1 12 2 4 2 9 5 14 8 5 3 10 7 13 9 3 3 8 7 13 11 5 4 8 7 10 8 40 32 78 62 115 91 10 8 19 19 28 33 9 14 14 27 14 37z m36 11l0-311c0-12-4-23-13-32-9-9-20-13-33-14l-420 0c-13 0-23 5-33 14-9 9-13 20-13 32l0 311c0 13 4 24 13 32 9 9 20 14 33 14l420 0c13 0 24-5 33-14 9-8 13-19 13-32z"/>
<glyph glyph-name="love" unicode="" d="M476 342c0 15-2 29-6 40-5 12-10 21-16 29-7 7-15 12-24 17-9 4-18 7-27 9-8 2-17 2-28 2-10-1-21-3-31-7-11-4-22-11-32-19-10-8-19-15-25-20-6-6-12-12-17-18-4-4-8-6-14-6-6 0-10 2-14 6-5 5-10 11-17 18-7 6-15 13-25 20-9 7-20 13-32 19-11 5-22 7-31 7-10-1-19-1-28-2-10-1-19-4-27-9-9-6-16-11-24-17-7-7-12-16-16-29-3-12-5-26-6-40 0-32 18-66 54-102l166-160 166 160c36 36 54 70 54 102z m36 0c0-42-22-85-66-129l-177-172c-4-3-8-5-13-5-5 0-9 2-13 5l-178 173c-2 1-4 4-8 7-3 4-8 10-16 19-7 8-13 18-19 28-6 10-11 21-15 34-5 13-7 26-7 40 0 41 12 74 36 98 25 23 58 35 101 36 11 0 23-2 36-6 12-5 23-10 34-17 10-8 20-14 27-20 8-6 16-12 22-19 7 7 14 13 22 19 7 6 16 13 27 20 11 6 23 12 34 17 12 4 24 6 36 6 43 0 76-12 101-36 24-24 36-57 36-98z"/>
<glyph glyph-name="tumblr" unicode="" d="M221 475l63 0 0-111 104 0 0-68-104 0 0-113c0-26 1-42 4-49 2-7 7-13 15-17 9-6 20-9 33-9 22 0 44 7 66 22l0-69c-19-10-36-16-51-19-14-4-31-5-49-5-20 0-38 2-53 7-15 5-28 12-39 22-12 10-19 20-23 30-4 10-7 25-7 46l0 154-48 0 0 62c17 5 32 13 44 24 13 10 23 23 30 37 7 15 12 34 15 56z"/>
<glyph glyph-name="twitter" unicode="" d="M481 395c-13-18-28-34-46-47 0-3 0-7 0-12 0-25-4-50-11-74-7-25-18-49-32-72-15-22-33-42-53-59-21-18-45-32-74-42-29-11-59-16-93-16-51 0-98 14-141 42 7-1 14-2 22-2 43 0 81 13 115 40-20 0-38 6-54 18-16 12-27 27-33 46 7-1 13-1 18-1 8 0 16 1 24 3-21 4-39 15-53 31-14 17-21 37-21 59l0 1c13-7 27-11 42-12-13 9-23 20-30 33-8 14-11 28-11 44 0 17 4 33 12 47 24-28 52-51 84-68 33-17 69-27 107-28-2 7-3 14-3 21 0 25 9 47 27 65 18 17 40 26 65 27 27 0 50-10 68-29 21 4 40 11 58 22-6-22-20-39-40-51 18 2 35 7 53 14z"/>
<glyph glyph-name="users" unicode="" d="M158 256c-28-1-52-12-71-34l-35 0c-15 0-27 4-37 11-10 7-15 17-15 31 0 63 11 94 33 94 1 0 5-1 12-5 7-3 15-7 26-11 10-5 21-7 31-6 12 0 24 2 36 6-1-7-1-13-1-18 0-25 7-47 21-68z m286-170c0-21-7-38-20-50-13-13-30-19-51-19l-233 0c-22 0-39 6-52 19-13 12-19 29-20 50 0 9 1 19 1 28 1 9 2 18 4 29 2 10 4 20 7 29 2 9 6 17 11 26 5 8 11 15 17 21 6 6 14 11 23 15 9 3 19 5 30 5 1 0 5-2 11-6 6-4 12-8 20-12 7-5 16-9 28-13 11-4 23-6 36-6 13 0 25 2 36 6 11 3 21 8 29 13 8 5 14 9 19 12 5 3 9 5 11 6 11 0 21-2 30-5 9-4 17-9 23-15 6-6 11-13 17-21 5-9 8-17 11-26 3-9 5-19 7-29 2-11 4-20 4-29 0-9 1-19 1-28z m-273 341c0-19-7-35-20-49-14-13-30-20-49-20-19 0-35 7-48 20-13 14-20 30-20 49 0 18 7 34 20 48 13 13 29 20 48 20 19 0 35-7 49-20 13-14 20-30 20-48z m187-103c0-28-10-52-30-72-20-20-44-30-72-30-28 0-52 10-72 30-21 19-31 43-31 72 1 29 11 53 31 72 19 20 43 30 72 31 29 1 53-9 72-31 20-21 30-45 30-72z m154-60c0-14-5-24-15-31-10-8-22-11-37-11l-36 0c-18 22-41 33-70 34 14 21 22 43 22 68 0 5-1 11-2 18 12-4 24-6 36-6 10 0 21 2 32 6 10 3 19 7 25 11 7 4 11 6 12 5 22 0 33-31 33-94z m-34 163c0-19-7-35-20-49-14-13-30-20-48-20-19 0-35 7-49 20-13 14-20 30-20 49 0 18 7 34 20 48 14 13 30 20 49 20 18 0 34-7 48-20 13-14 20-30 20-48z"/>
<glyph glyph-name="print" unicode="" d="M128 73l256 0 0 73-256 0z m0 183l256 0 0 110-46 0c-7 0-14 2-19 8-6 5-8 12-8 19l0 46-183 0z m329-18c0 5-2 9-5 12-3 4-8 6-13 6-6 0-10-2-13-6-3-4-5-8-5-12-1-5 1-9 5-13 4-4 8-6 13-5 4 0 9 2 13 5 4 2 6 7 5 13z m37 0l0-119c0-3-1-5-3-6-2-2-4-3-6-3l-64 0 0-46c0-8-3-14-8-19-6-6-12-9-20-9l-274 0c-8 0-14 3-19 9-5 5-8 11-9 19l0 46-64 0c-2 0-4 1-6 3-2 2-3 4-3 6l0 119c0 15 6 28 17 38 11 11 23 17 38 16l18 0 0 156c0 8 3 14 9 19 5 6 11 9 19 9l192 0c7 0 16-2 25-6 9-5 17-9 22-14l43-43c5-6 10-13 14-22 4-10 6-18 6-25l0-74 18 0c15 0 28-5 39-16 10-10 16-23 16-38z"/>
<glyph glyph-name="vimeo" unicode="" d="M395 330c3 16 1 29-6 38-10 12-28 16-53 12-4 0-8-1-12-3-5-2-10-5-17-9-6-4-12-8-18-14-6-5-11-12-17-20-5-8-10-16-13-26 15 2 26 0 33-4 6-5 9-14 7-29-1-9-6-23-15-41-8-14-15-24-20-28-8-6-16-4-25 4-4 5-8 11-10 19-3 8-5 15-6 20-1 6-2 14-3 24 0 11-1 17-2 21-5 24-8 40-10 47-2 7-6 13-10 19-5 7-9 11-14 12-11 3-24 1-37-7-10-6-23-16-39-31-15-14-27-24-35-28l0-2c3-2 6-5 8-8 2-3 4-5 6-6 4 0 9 0 15 3 7 2 12 3 17 3 4 0 8-3 12-9 2-3 4-7 5-11 1-4 3-9 4-13 1-5 3-9 4-12 3-9 8-27 15-53 7-28 12-47 16-57 8-19 18-31 30-36 8-2 16-2 24 0 8 2 15 5 22 9 25 15 48 37 71 68 20 26 36 54 49 83 13 30 21 51 24 65z m80 63l0-274c0-23-8-42-24-58-16-16-35-24-58-25l-274 0c-23 0-42 9-58 25-16 16-24 36-24 58l0 274c0 23 8 42 24 58 16 16 35 24 58 25l274 0c23 0 42-9 58-25 16-16 24-36 24-58z"/>
<glyph glyph-name="vkontakte" unicode="" d="M511 356c4-11-9-37-40-78-4-6-10-13-17-23-14-18-22-29-24-35-3-7-2-14 3-21 4-4 11-11 22-22l1 0 0-1 0 0c26-24 43-43 52-59 0-1 1-2 1-3 1-2 2-4 2-8 0-3 0-6 0-9 0-2-3-5-7-7-4-2-9-3-16-3l-68-2c-4 0-9 0-15 2-5 1-10 3-14 6l-5 3c-5 4-11 9-19 17-7 8-13 15-18 21-5 6-10 11-16 15-6 4-11 6-15 4-1 0-1 0-2-1-1 0-3-2-5-4-2-1-4-4-6-7-1-3-3-8-4-14-1-6-2-13-2-21 0-3 0-5-1-7 0-2-1-4-2-5l-1-1c-3-4-8-6-14-6l-31 0c-12-1-25 0-38 4-13 4-25 9-36 14-10 5-19 11-27 18-8 6-14 11-19 15l-7 7c-1 1-4 4-7 7-3 4-9 12-19 25-10 12-19 26-28 40-9 14-20 33-33 56-12 24-24 48-35 73-1 3-1 5-1 7 0 2 0 3 0 4l1 2c3 3 8 5 16 5l73 0c2 0 4 0 6-1 2-1 3-2 4-2l2-1c3-2 5-5 6-9 4-9 8-18 12-28 5-9 9-16 11-21l5-8c5-11 10-20 15-27 4-8 9-14 12-19 4-4 8-8 11-10 4-3 7-4 10-4 2 0 4 0 7 1 0 1 0 1 1 2 1 1 2 2 3 6 2 3 3 7 4 12 0 5 1 12 2 22 1 10 1 21 0 33 0 7-1 14-2 20-1 5-3 9-4 12l-1 3c-5 6-12 10-23 11-2 1-2 3 2 7 2 3 6 6 10 8 9 5 30 7 63 6 15 0 27-1 36-3 4-1 7-2 9-4 2-1 4-3 6-6 1-3 2-5 2-9 0-3 0-7 1-12 1-5 1-10 0-14-1-5-1-11-1-19 0-9 0-16 0-22 0-2 0-6 0-11-1-6-1-10 0-13 0-4 0-7 1-11 0-4 1-7 2-10 2-4 4-6 7-7 1 0 2-1 4-1 2 0 4 1 7 3 3 2 7 5 10 9 4 4 8 10 14 18 6 8 12 18 18 29 11 18 20 38 29 59 1 2 1 4 2 5 1 2 2 2 3 3l1 1 2 1c0 0 1 0 3 1 3 0 5 0 6 0l76 0c7 1 13 1 17 0 5-2 7-3 8-5z"/>
<glyph glyph-name="comments" unicode="" d="M256 402c-39 0-75-6-109-20-34-13-61-31-80-53-20-23-30-47-31-73 0-21 7-41 21-61 13-19 33-36 58-50l24-14-7-28c-5-17-12-33-20-49 29 12 55 28 78 49l13 11 16-2c13-2 25-2 37-2 39 0 75 6 109 20 34 13 61 31 80 53 20 23 30 47 31 73 0 26-10 50-31 73-20 22-47 40-80 53-33 14-69 20-109 20z m256-146c0-33-11-64-34-92-23-28-54-50-93-66-40-17-83-25-129-25-13 0-27 1-41 2-38-33-82-56-132-69-9-2-20-4-32-6l-2 0c-3 0-5 1-8 3-2 2-3 5-4 8l0 0c-1 1-1 2 0 4 1 2 1 2 0 2 0 0 0 1 1 3l2 3c0 0 1 0 2 2 2 2 3 3 3 3 1 1 4 5 8 9 5 5 8 9 10 12 3 2 6 6 9 11 4 5 7 9 9 14 3 5 6 11 8 17 2 7 5 14 8 22-30 17-54 38-71 63-17 25-26 51-26 80 0 33 11 64 34 92 23 28 54 50 93 66 40 17 83 25 129 25 46 0 89-8 129-25 39-16 70-38 93-66 23-28 34-59 34-92z"/>
<glyph glyph-name="feedpress" unicode="" d="M164 128c0-15-5-28-15-39-11-10-24-16-39-16-16 0-29 6-39 16-11 11-16 24-16 39 0 15 5 28 16 39 10 10 23 16 39 16 15 0 28-6 39-16 10-11 15-24 15-39z m147-35c0-5-1-10-5-14-3-4-8-6-14-6l-38 0c-5 0-9 2-12 5-4 3-6 7-6 12-4 43-22 81-53 112-31 31-68 48-112 52-5 1-8 3-12 6-3 4-4 8-4 12l0 39c0 5 2 10 6 13 3 4 7 5 12 5l2 0c30-2 59-10 87-23 28-13 52-30 74-52 22-21 39-46 52-74 13-28 20-57 23-87z m146-1c1-5-1-9-5-13-3-4-8-6-13-6l-41 0c-5 0-9 2-13 5-4 4-6 8-6 12-2 41-11 80-28 117-17 37-39 69-66 96-27 27-59 49-97 66-37 17-75 27-116 29-5 0-9 2-12 6-3 4-5 8-5 12l0 41c0 5 2 10 5 14 4 3 8 5 13 5l1 0c50-3 98-15 143-35 46-20 86-48 122-84 36-35 64-76 84-121 20-46 32-94 34-144z"/>
<glyph glyph-name="youtube" unicode="" d="M314 157l0-61c0-12-4-19-11-19-5 0-9 2-13 6l0 86c4 5 8 7 13 7 7 0 11-7 11-19z m96-1l0-13-25 0 0 13c0 13 4 20 13 20 8 0 12-7 12-20z m-276 63l31 0 0 26-89 0 0-26 30 0 0-163 28 0z m83-163l25 0 0 141-25 0 0-108c-6-8-11-12-17-12-3 0-5 2-5 6-1 1-1 4-1 10l0 104-25 0 0-111c0-10 1-17 2-21 3-8 8-11 17-11 9 0 19 6 29 17z m123 42l0 57c0 14-1 23-3 28-3 10-10 16-20 16-10 0-19-5-27-16l0 62-26 0 0-189 26 0 0 14c9-11 17-16 27-16 10 0 17 5 20 16 2 5 3 14 3 28z m96 3l0 4-26 0c0-10 0-16-1-17-1-7-5-11-11-11-9 0-13 7-13 20l0 25 51 0 0 29c0 15-3 26-8 33-7 10-17 15-30 15-13 0-23-5-31-15-5-7-7-18-7-33l0-49c0-15 2-26 8-33 7-10 18-15 31-15 13 0 23 5 30 15 4 5 6 10 6 15 1 2 1 8 1 17z m-174 261l0 60c0 13-4 20-12 20-8 0-12-7-12-20l0-60c0-13 4-20 12-20 8 0 12 7 12 20z m206-215c0-44-3-78-8-99-2-12-8-21-16-29-9-8-19-12-30-13-34-4-87-6-158-6-70 0-123 2-158 6-11 1-21 5-30 13-8 7-14 17-16 29-5 21-8 54-8 99 0 45 3 78 8 100 2 12 8 21 16 29 9 8 19 12 30 13 35 4 88 6 158 6 71 0 124-2 158-6 12-1 21-6 30-13 8-8 13-17 16-29 5-21 8-54 8-100z m-285 365l29 0-35-114 0-77-28 0 0 77c-3 14-9 34-18 61-7 19-13 37-19 53l31 0 20-75z m105-95l0-50c0-16-2-27-8-34-7-10-17-15-30-15-13 0-23 5-30 15-5 7-8 19-8 34l0 50c0 15 3 26 8 33 7 10 17 15 30 15 13 0 23-5 30-15 6-7 8-18 8-33z m96 46l0-142-26 0 0 15c-10-12-20-18-30-18-8 0-14 4-16 11-2 5-3 12-3 22l0 112 27 0 0-105c0-6 0-10 0-10 0-4 2-6 6-6 5 0 10 4 16 12l0 109z"/>
<glyph glyph-name="stumble" unicode="" d="M283 306l0 31c0 7-3 14-8 19-5 5-11 8-19 8-7 0-13-3-18-8-6-5-9-12-9-19l0-161c0-31-11-58-33-81-23-22-50-34-81-34-32 0-59 12-81 34-23 23-34 50-34 81l0 68 88 0 0-68c0-7 3-13 8-18 6-6 12-8 19-8 7 0 13 2 18 8 6 5 8 11 8 18l0 161c0 31 12 58 34 80 23 22 50 34 81 34 31 0 58-12 81-34 22-22 34-49 34-80l0-31-53-17z m142-62l87 0 0-68c0-31-11-58-34-81-22-22-49-34-81-34-31 0-58 12-81 34-22 23-33 50-33 81l0 69 35-17 53 17 0-69c0-7 2-13 8-18 5-6 11-8 18-8 8 0 14 2 20 7 5 5 8 12 8 19z"/>
<glyph glyph-name="posts" unicode="" d="M512 128l0-36c0-5-2-10-6-13-3-4-8-5-12-6l-476 0c-5 0-9 2-12 6-4 4-6 8-6 13l0 36c0 5 2 9 6 13 3 3 8 5 12 5l476 0c5 0 9-1 12-5 4-4 6-8 6-13z m0 110l0-37c0-5-2-9-6-13-3-3-8-5-12-5l-476 0c-5 0-9 2-12 5-4 4-6 8-6 13l0 37c0 5 2 9 6 12 3 4 8 6 12 6l476 0c5 0 9-2 12-6 4-3 6-8 6-12z m0 110l0-37c0-5-2-9-6-13-3-4-8-6-12-6l-476 0c-5 0-9 2-12 6-4 4-6 8-6 13l0 37c0 4 2 9 6 12 3 4 8 6 12 6l476 0c5 0 9-2 12-6 4-3 6-7 6-12z m0 109l0-37c0-4-2-9-6-12-3-4-8-6-12-6l-476 0c-5 0-9 2-12 6-4 3-6 7-6 12l0 37c0 5 2 9 6 13 3 4 8 6 12 6l476 0c5 0 9-2 12-6 4-4 6-8 6-13z"/>
<glyph glyph-name="dribbble" unicode="" d="M329 83c-8 46-21 94-40 143l-1 0 0-1c-3-1-7-2-12-4-5-2-15-7-29-14-14-7-27-15-39-24-13-8-25-19-38-32-12-14-22-28-29-42l-5 3c36-29 76-43 120-43 25 0 49 5 73 14z m-53 174c-4 9-9 20-15 32-59-18-123-27-192-27 0-1 0-3 0-6 0-24 4-46 12-68 8-21 20-40 35-57 10 17 22 33 36 48 14 15 27 26 41 35 13 9 26 16 37 23 12 7 21 11 28 14l11 3c1 1 2 1 4 1 1 1 3 1 3 2z m-30 60c-23 41-46 77-70 108-26-12-49-30-67-53-18-23-30-49-37-78 58 0 116 8 174 23z m195-91c-40 12-79 14-117 8 17-45 29-90 37-134 21 15 39 33 53 55 14 21 23 45 27 71z m-230 212c0 0 0 0 0 0 0 0 0 0 0 0z m169-41c-36 31-77 46-124 46-14 0-29-2-44-5 25-32 48-69 70-109 13 5 26 11 37 17 12 7 21 12 28 18 7 5 13 10 18 16 6 6 9 10 11 12z m64-139c-1 44-15 83-43 117l0 0c-2-3-4-5-6-7-2-3-6-7-12-13-6-5-13-11-21-17-7-6-17-12-28-19-11-6-24-12-38-18 5-10 9-19 13-27 0-1 1-3 1-5 1-2 2-4 3-5 7 1 14 2 21 2 7 1 14 1 21 1 7-1 14-1 20-1 6 0 12 0 18-1 5 0 11-1 16-1 6-1 10-1 14-2 4-1 7-2 10-2 3 0 6 0 8-1z m31-2c0-40-9-77-29-110-19-34-46-60-80-80-33-20-70-30-110-30-39 0-76 10-110 30-34 20-61 46-80 80-18 33-28 70-29 110-1 40 8 77 29 110 21 34 48 60 80 80 32 20 69 30 110 30 42 0 79-10 110-30 32-20 59-46 80-80 22-33 31-70 29-110z"/>
<glyph glyph-name="soundcloud" unicode="" d="M17 168c0-1-1-2-5-2-2 0-3 1-5 2l-7 36 7 37c2 1 3 2 5 2 4 0 5-1 5-2l9-37z m53-20c0-2-2-4-7-4-4 0-6 2-6 4l-6 56 6 85c0 2 2 4 6 4 5 0 7-2 7-4l7-85z m52 2c0-4-3-6-7-6-5 0-7 2-7 4l-6 56 6 113c0 4 2 6 7 6 4 0 7-2 7-6l6-113z m52 0c0-4-3-6-8-6-6 0-8 2-8 6l-4 54 4 114c0 4 2 6 8 6 5 0 8-2 8-6l5-114z m52 1c0-5-3-7-9-7-5 0-8 2-9 7l-3 53 3 131c1 5 4 7 9 7 6 0 9-2 9-7l4-131z m37-7c-5 0-7 3-7 8l0 202c0 4 2 6 6 7 12 5 27 8 43 8 30 0 56-10 78-30 23-20 35-44 38-73 8 4 17 5 25 5 18 0 34-6 47-19 13-12 19-27 19-44 0-18-6-33-19-46-13-12-29-19-47-19z"/>
<glyph glyph-name="delicious" unicode="" d="M0 2l0 255 254 0 0-255z m258 253l0 255 254 0 0-255z"/>
<glyph glyph-name="facebook" unicode="" d="M292 353l74 0-9-81-65 0 0-236-97 0 0 236-49 0 0 81 49 0 0 49c0 35 8 61 24 79 17 18 44 26 81 26l65 0 0-81-41 0c-7 0-13 0-17-2-5-1-8-3-10-6-2-3-3-7-4-10 0-3 0-8-1-14z"/>
<glyph glyph-name="flickr" unicode="" d="M393 476c23 0 42-9 58-25 16-16 24-36 24-58l0-274c0-23-8-42-24-58-16-16-35-24-58-25l-274 0c-23 0-42 9-58 25-16 16-24 36-24 58l0 274c0 23 8 42 24 58 16 16 35 24 58 25z m-157-220c0 17-6 31-18 43-12 12-26 18-43 17-16 0-31-6-42-17-12-11-18-26-18-43 0-17 6-32 18-43 12-11 26-17 42-17 16-1 31 5 43 17 13 12 19 26 18 43z m161 0c0 17-6 31-17 43-12 12-26 18-43 17-17 0-32-6-43-17-12-11-18-26-18-43 0-17 6-32 18-43 11-11 26-17 43-17 17-1 31 5 43 17 11 12 17 26 17 43z"/>
<glyph glyph-name="pinterest" unicode="" d="M58 328c0 22 4 43 14 64 9 21 22 41 39 59 16 18 39 33 66 44 28 11 58 17 91 17 55 0 99-17 134-50 35-34 52-73 52-118 0-59-15-107-44-145-29-38-67-57-115-57-15 0-29 3-43 11-13 7-22 15-28 26l-21-81c-1-7-4-13-6-20-3-6-6-13-9-19-3-7-6-12-10-18-3-5-6-10-10-15-3-5-6-9-8-12-3-3-5-6-7-8l-3-4c-1-2-2-2-4-2-2 0-3 1-3 3 0 0 0 3-1 7 0 5-1 9-1 14-1 5-1 11-2 20 0 8 0 15 0 22 0 7 0 15 1 25 1 9 3 17 4 24 4 16 16 70 38 160-3 6-5 13-7 20-2 8-2 14-2 19l-1 8c0 21 6 40 17 54 11 15 25 22 40 22 12 0 22-4 30-12 7-9 10-19 10-32 0-8-2-18-4-29-3-11-7-24-12-39-5-15-9-27-10-37-4-15-1-28 9-40 9-11 22-16 37-16 27 0 50 15 67 46 18 30 27 67 26 110 0 33-10 60-32 82-21 21-51 31-90 31-43 0-78-14-104-42-27-27-40-60-41-99 0-23 7-42 20-58 4-5 5-10 4-16-1-2-2-6-3-12-2-6-3-10-3-12-1-4-3-6-6-7-2-1-5-1-9 0-20 8-35 22-45 43-10 20-15 43-15 69z"/>
<glyph glyph-name="digg" unicode="" d="M474 317c0 2 0 4 0 6-2 0-4 0-5 0-36 0-71 0-107 0-4 0-5-1-5-5 0-40 0-80 0-120 0-5 1-6 6-6 20 1 40 0 61 0 1 0 3 0 5 0 0-6 0-11 0-16 0-4-1-5-5-5-20 0-41 0-62 0-4 0-5-1-5-5 0-8 0-15 0-23 0-4 1-5 5-5 36 0 71 0 106 0 5 0 6 2 6 6 0 58 0 115 0 173z m-49-92c-6 0-13 0-19 0-3 0-4 1-4 4 0 19 0 38 0 57 0 2 1 4 2 4 8 0 16 0 25 0 0-4 0-7 0-11 0-17 0-33 0-49 0-4-1-5-4-5z m-87 98c-35 0-71 0-106 0-4 0-5-1-5-5 0-40 0-80 0-120 0-4 1-6 5-6 20 1 41 0 61 1 5 0 6-2 6-6 0-4 0-8 0-11 0-4-1-5-5-5-20 0-41 0-62 0-1 0-3 0-5 0 0-10 0-19 0-28 0-4 1-5 5-5 35 0 71 0 106 0 2 0 3 0 5 0 0 2 0 4 0 5 0 58 0 117 1 175 0 4-2 5-6 5z m-39-95c0-1-2-3-3-3-7 0-15 0-22 0-1 0-2 2-2 3-1 20 0 41 0 62 8 0 16 0 24 0 1 0 3-2 3-3 0-19 0-39 0-59z m-189 141c0-13 0-26 0-40 0-6 0-6-6-6-21 0-41 0-61 0-4 0-5-1-5-5 0-44 0-88 0-132 0-4 1-5 5-5 36 0 71 0 107 0 1 0 3 0 4 0 0 65 0 129 0 193-14 0-29 0-44 0 0-2 0-4 0-5z m-5-155c-6 0-12 0-18 0-2 0-4 1-4 2 0 25 0 49 0 74 9 0 18 0 27 0 0-2 0-3 0-5 0-22 0-44 0-66 0-4-1-6-5-5z m104 109c-12 0-24 0-36 0-4 0-4-1-4-5 0-13 0-25 0-38 0-31 0-63 0-94 0-4 0-5 4-5 5 0 10 0 14 0 9 0 17 0 26 0 0 1 0 2 0 2 0 46 0 91 0 137 0 3-1 3-4 3z m-37 17c13 0 25 0 38 0 2 0 3 1 3 4 0 4 0 8 0 13 0 5 0 11 0 17-15 0-29 0-44 0 0-11 0-21 0-31 0-1 2-3 3-3z"/>
<glyph glyph-name="xing" unicode="" d="M225 321c-1-3-26-46-73-130-5-9-11-13-19-13l-68 0c-4 0-7 2-9 5-2 3-2 7 0 10l73 128c0 0 0 0 0 0l-46 80c-3 4-3 8-1 11 2 3 5 4 9 4l69 0c7 0 14-4 19-13z m231 184c2-3 2-7 0-11l-151-267 0 0 96-176c2-3 2-7 0-10-2-3-5-4-9-4l-68 0c-8 0-15 4-19 12l-97 178c3 6 54 96 152 269 4 9 11 13 18 13l69 0c4 0 7-1 9-4z"/>
<glyph glyph-name="weibo" unicode="" d="M193 145c4 7 5 13 3 20-2 7-6 11-13 14-6 3-13 3-21 0-7-2-13-6-17-13-4-6-5-13-4-19 2-7 6-12 13-15 6-3 13-3 21 0 8 2 14 7 18 13z m27 35c1 2 2 5 1 7-1 3-3 5-5 6-3 1-6 0-8-1-3-1-5-2-7-5-3-6-2-10 4-13 3-1 6-1 8 0 3 1 5 3 7 6z m49-31c-8-19-23-34-45-43-21-9-43-10-64-3-20 6-34 18-42 36-8 18-7 35 2 54 9 17 23 31 43 39 20 9 40 11 60 6 22-6 37-17 46-34 9-18 9-36 0-55z m90 46c-2 18-11 34-26 48-15 15-35 25-59 32-25 6-51 8-79 6-42-5-78-18-105-41-28-22-41-48-38-75 1-19 10-35 25-49 15-14 35-24 60-31 24-7 50-9 78-6 43 4 78 18 106 40 28 23 40 48 38 76z m88-1c0-13-4-27-11-40-7-14-17-27-31-39-14-13-30-24-48-34-19-10-40-18-65-24-25-5-50-8-77-8-27 0-53 3-79 9-25 7-48 15-68 27-21 11-37 25-49 43-13 17-19 36-19 57 0 22 7 45 20 70 13 25 32 49 56 74 32 32 65 54 98 67 33 13 56 12 70-2 13-12 15-32 6-60-1-2-1-4 0-5 0-2 1-2 3-2 1-1 2-1 4 0 1 0 2 0 4 1l1 0c27 12 50 17 71 17 20 0 35-6 43-17 9-12 9-29 0-51 0-3-1-5-1-6 0-1 0-2 1-3 2-1 3-2 4-3 1 0 2-1 5-1 10-4 20-8 29-14 9-5 16-13 23-23 6-10 10-21 10-33z m-22 178c8-9 14-19 16-31 2-12 2-23-2-34-1-4-4-7-8-9-4-2-9-3-13-1-4 1-8 4-10 8-2 4-2 8-1 13 4 12 2 22-7 31-8 10-18 13-30 10-5-1-9 0-13 3-4 2-7 6-7 10-1 5 0 9 2 13 2 4 6 6 11 7 11 3 22 2 34-1 11-4 20-10 28-19z m52 47c17-19 27-40 32-64 5-24 4-47-4-69-1-5-5-9-9-11-5-3-10-3-15-2-5 2-9 5-12 10-2 5-3 10-1 15 5 16 6 32 3 49-4 17-11 32-23 45-12 13-26 23-42 28-17 5-33 5-50 2-5-1-10 0-15 3-4 3-7 7-8 12-1 5 0 10 3 15 3 4 7 7 12 8 23 5 47 4 70-3 23-7 43-20 59-38z"/>
<glyph glyph-name="whatsapp" unicode="" d="M486 260c0-124-101-225-226-225-39 0-77 11-109 28l-125-39 40 120c-20 34-32 73-32 116 0 124 101 224 226 224 125 0 226-100 226-224z m-226 189c-105 0-190-85-190-189 0-41 13-80 36-111l-24-70 74 23c30-19 66-31 104-31 105 0 190 85 190 189 0 104-85 189-190 189z m114-241c-1 2-5 4-10 7-6 2-33 16-38 17-5 2-9 3-13-2-3-6-14-18-17-22-3-4-7-4-12-1-6 3-24 8-45 27-16 15-27 33-31 38-3 6 0 9 3 11 2 3 5 7 8 10 3 3 4 6 6 9 2 4 1 7-1 10-1 3-12 30-17 41-4 11-9 9-12 9-4 0-7 0-11 0-4 0-10-1-15-7-5-5-19-18-19-45 0-28 20-54 22-57 3-4 39-61 95-83 57-22 57-15 67-14 10 1 33 13 37 26 5 13 5 24 3 26z"/>
<glyph glyph-name="behance" unicode="" d="M442 359l-116 0 0 28 116 0 0-28z m-193-118c8-11 12-25 12-42 0-17-5-32-13-46-6-8-12-16-20-22-10-7-20-12-33-14-12-3-26-4-40-4l-129 0 0 286 138 0c35 0 60-10 74-30 9-12 13-27 13-44 0-17-4-32-13-42-5-6-12-12-22-16 15-6 26-14 33-26z m-157 45l60 0c13 0 23 3 31 7 7 5 11 14 11 26 0 13-5 22-15 26-9 3-20 5-34 5l-53 0z m108-83c0 15-6 25-18 31-7 3-16 5-29 5l-61 0 0-77 60 0c13 0 22 2 29 5 13 7 19 19 19 36z m285 47c1-9 2-23 1-41l-149 0c1-21 8-35 21-43 8-5 18-8 30-8 12 0 22 3 30 10 4 3 8 8 11 14l55 0c-2-13-9-25-20-38-19-19-45-29-78-29-27 0-51 8-72 25-21 17-31 44-31 82 0 36 9 63 28 82 19 19 43 28 73 28 18 0 34-3 49-9 14-7 26-17 35-31 9-12 14-26 17-42z m-54-5c-1 14-6 25-15 32-8 7-19 11-32 11-13 0-24-4-32-12-7-7-12-18-14-31z"/>
<glyph glyph-name="ok" unicode="" d="M255 432c29 0 53-24 53-53 0-30-24-54-53-54-30 0-54 24-54 54 0 29 24 53 54 53z m0-183c71 0 129 58 129 130 0 71-58 129-129 129-72 0-130-58-130-129 0-72 58-130 130-130z m52-106c27 6 52 16 75 31 18 11 24 35 12 53-11 17-34 23-52 12-53-34-122-34-175 0-18 11-41 5-52-12-11-18-6-42 12-53 23-15 49-25 75-31l-73-73c-14-14-14-39 15-53 8-8 18-12 27-12 10 0 20 4 27 12l71 71 72-71c15-15 39-15 54 0 14 14 14 39 0 53l-73 73"/>
<glyph glyph-name="plus" unicode="" d="M389 282c10 0 15-9 15-26 0-17-5-26-15-26 0 0-107 0-107 0 0 0 0-107 0-107 0-10-9-15-26-15-17 0-26 5-26 15 0 0 0 107 0 107 0 0-107 0-107 0-10 0-15 9-15 26 0 17 5 26 15 26 0 0 107 0 107 0 0 0 0 107 0 107 0 10 9 15 26 15 17 0 26-5 26-15 0 0 0-107 0-107 0 0 107 0 107 0"/>
<glyph glyph-name="minus" unicode="" d="M389 282c10 0 15-9 15-26 0-17-5-26-15-26 0 0-266 0-266 0-10 0-15 9-15 26 0 17 5 26 15 26 0 0 266 0 266 0"/>
<glyph glyph-name="fontawesome-webfont" unicode="" d="M319 252c0-31-6-58-19-82-13-24-31-43-55-57-24-13-51-20-82-20-22 0-43 4-63 13-21 9-38 20-52 35-15 14-27 32-35 52-9 20-13 41-13 63 0 22 4 43 13 63 8 20 20 38 35 52 14 15 31 26 52 35 20 9 41 13 63 13 42 0 79-14 109-43l-44-42c-18 17-39 25-65 25-18 0-35-5-51-14-15-9-27-22-36-37-9-16-14-33-14-52 0-19 5-36 14-52 9-15 21-28 36-37 16-9 33-14 51-14 12 0 23 2 34 5 10 4 19 8 25 13 7 5 13 11 18 17 5 7 8 13 11 19 2 6 3 11 4 16l-92 0 0 56 154 0c1-9 2-18 2-27z m193 27l0-46-46 0 0-47-47 0 0 47-47 0 0 46 47 0 0 47 47 0 0-47z"/>
<glyph glyph-name="caret-left" unicode="" d="M347 384l0-256c0-5-1-9-5-13-4-3-8-5-13-5-5 0-9 2-13 5l-128 128c-3 4-5 8-5 13 0 5 2 9 5 13l128 128c4 3 8 5 13 5 5 0 9-2 13-5 4-4 5-8 5-13z"/>
<glyph glyph-name="caret-right" unicode="" d="M329 256c0-5-2-9-5-13l-128-128c-4-3-8-5-13-5-5 0-9 2-13 5-4 4-5 8-5 13l0 256c0 5 1 9 5 13 4 3 8 5 13 5 5 0 9-2 13-5l128-128c3-4 5-8 5-13z"/>
</font>
</defs>
</svg>
